<mxfile host="app.diagrams.net" modified="2022-06-16T13:16:07.544Z" agent="5.0 (X11; Linux x86_64) AppleWebKit/537.36 (KHTML, like Gecko) Chrome/102.0.5005.99 Safari/537.36" etag="TUFCjX_QuRjUCEWPtbNQ" version="20.0.1" type="github">
  <diagram id="2f4XIGFgkEDHAVFn7LDh" name="Page-1">
    <mxGraphModel dx="1089" dy="595" grid="1" gridSize="10" guides="1" tooltips="1" connect="1" arrows="1" fold="1" page="1" pageScale="1" pageWidth="850" pageHeight="1100" math="0" shadow="0">
      <root>
        <mxCell id="0" />
        <mxCell id="1" parent="0" />
        <mxCell id="icATmxc4wXeSq_js2e2I-15" value="" style="rounded=1;whiteSpace=wrap;html=1;fontSize=20;fillColor=#f5f5f5;strokeColor=#666666;fontColor=#333333;" vertex="1" parent="1">
          <mxGeometry x="179" y="224" width="320" height="276" as="geometry" />
        </mxCell>
        <mxCell id="icATmxc4wXeSq_js2e2I-10" style="edgeStyle=orthogonalEdgeStyle;rounded=0;orthogonalLoop=1;jettySize=auto;html=1;fontSize=20;" edge="1" parent="1" source="icATmxc4wXeSq_js2e2I-2" target="icATmxc4wXeSq_js2e2I-3">
          <mxGeometry relative="1" as="geometry" />
        </mxCell>
        <mxCell id="icATmxc4wXeSq_js2e2I-2" value="&lt;font style=&quot;font-size: 20px;&quot;&gt;upsample&lt;/font&gt;" style="rounded=1;whiteSpace=wrap;html=1;fillColor=#f8cecc;strokeColor=#b85450;" vertex="1" parent="1">
          <mxGeometry x="200" y="260" width="120" height="60" as="geometry" />
        </mxCell>
        <mxCell id="icATmxc4wXeSq_js2e2I-11" style="edgeStyle=orthogonalEdgeStyle;rounded=0;orthogonalLoop=1;jettySize=auto;html=1;entryX=0.5;entryY=0;entryDx=0;entryDy=0;fontSize=20;" edge="1" parent="1" source="icATmxc4wXeSq_js2e2I-3" target="icATmxc4wXeSq_js2e2I-4">
          <mxGeometry relative="1" as="geometry" />
        </mxCell>
        <mxCell id="icATmxc4wXeSq_js2e2I-3" value="&lt;font style=&quot;font-size: 20px;&quot;&gt;conv2D&lt;/font&gt;" style="rounded=1;whiteSpace=wrap;html=1;fillColor=#fff2cc;strokeColor=#d6b656;" vertex="1" parent="1">
          <mxGeometry x="200" y="340" width="120" height="60" as="geometry" />
        </mxCell>
        <mxCell id="icATmxc4wXeSq_js2e2I-12" style="edgeStyle=orthogonalEdgeStyle;rounded=0;orthogonalLoop=1;jettySize=auto;html=1;entryX=0.5;entryY=0;entryDx=0;entryDy=0;fontSize=20;" edge="1" parent="1" source="icATmxc4wXeSq_js2e2I-4" target="icATmxc4wXeSq_js2e2I-7">
          <mxGeometry relative="1" as="geometry" />
        </mxCell>
        <mxCell id="icATmxc4wXeSq_js2e2I-4" value="&lt;font style=&quot;font-size: 20px;&quot;&gt;ReLU&lt;/font&gt;" style="rounded=1;whiteSpace=wrap;html=1;fillColor=#d5e8d4;strokeColor=#82b366;" vertex="1" parent="1">
          <mxGeometry x="200" y="420" width="120" height="60" as="geometry" />
        </mxCell>
        <mxCell id="icATmxc4wXeSq_js2e2I-13" style="edgeStyle=orthogonalEdgeStyle;rounded=0;orthogonalLoop=1;jettySize=auto;html=1;fontSize=20;" edge="1" parent="1" source="icATmxc4wXeSq_js2e2I-7" target="icATmxc4wXeSq_js2e2I-8">
          <mxGeometry relative="1" as="geometry" />
        </mxCell>
        <mxCell id="icATmxc4wXeSq_js2e2I-7" value="&lt;font style=&quot;font-size: 20px;&quot;&gt;conv2D&lt;/font&gt;" style="rounded=1;whiteSpace=wrap;html=1;fillColor=#fff2cc;strokeColor=#d6b656;" vertex="1" parent="1">
          <mxGeometry x="360" y="300" width="120" height="60" as="geometry" />
        </mxCell>
        <mxCell id="icATmxc4wXeSq_js2e2I-14" style="edgeStyle=orthogonalEdgeStyle;rounded=0;orthogonalLoop=1;jettySize=auto;html=1;fontSize=20;" edge="1" parent="1" source="icATmxc4wXeSq_js2e2I-8">
          <mxGeometry relative="1" as="geometry">
            <mxPoint x="420" y="470" as="targetPoint" />
          </mxGeometry>
        </mxCell>
        <mxCell id="icATmxc4wXeSq_js2e2I-8" value="&lt;font style=&quot;font-size: 20px;&quot;&gt;ReLU&lt;/font&gt;" style="rounded=1;whiteSpace=wrap;html=1;fillColor=#d5e8d4;strokeColor=#82b366;" vertex="1" parent="1">
          <mxGeometry x="360" y="380" width="120" height="60" as="geometry" />
        </mxCell>
        <mxCell id="icATmxc4wXeSq_js2e2I-9" value="" style="endArrow=classic;html=1;rounded=0;fontSize=20;entryX=0.5;entryY=0;entryDx=0;entryDy=0;" edge="1" parent="1" target="icATmxc4wXeSq_js2e2I-2">
          <mxGeometry width="50" height="50" relative="1" as="geometry">
            <mxPoint x="260" y="230" as="sourcePoint" />
            <mxPoint x="350" y="360" as="targetPoint" />
          </mxGeometry>
        </mxCell>
      </root>
    </mxGraphModel>
  </diagram>
</mxfile>
